<?xml version="1.0" standalone="no"?>
<!DOCTYPE svg PUBLIC "-//W3C//DTD SVG 20010904//EN"
 "http://www.w3.org/TR/2001/REC-SVG-20010904/DTD/svg10.dtd">
<svg version="1.0" xmlns="http://www.w3.org/2000/svg"
 width="85.000000pt" height="85.000000pt" viewBox="0 0 300.000000 300.000000"
 preserveAspectRatio="xMidYMid meet">
<metadata>
Created by potrace 1.10, written by Peter Selinger 2001-2011
</metadata>
<g transform="translate(0.000000,300.000000) scale(0.100000,-0.100000)"
fill="#000000" stroke="none">
<path d="M1493 2738 c-5 -7 -27 -47 -48 -88 -21 -41 -69 -135 -107 -208 l-70
-132 -125 66 c-69 36 -128 62 -133 57 -4 -4 15 -98 41 -208 27 -110 65 -267
84 -348 37 -151 37 -177 -1 -177 -8 0 -88 85 -179 190 -97 111 -171 187 -178
184 -7 -2 -33 -45 -57 -94 -24 -50 -50 -90 -56 -90 -7 0 -87 18 -178 40 -91
22 -170 40 -176 40 -5 0 -10 -7 -10 -16 0 -14 99 -354 116 -397 3 -10 -14 -17
-63 -27 -37 -7 -74 -15 -81 -18 -36 -13 -24 -22 450 -367 l187 -137 -35 -94
c-31 -87 -41 -134 -29 -134 7 0 379 59 509 80 66 11 121 18 124 15 3 -3 0 -87
-6 -188 -25 -376 -25 -383 -13 -405 16 -31 76 -31 92 0 12 22 8 177 -12 447
-5 74 -8 136 -6 138 3 2 153 -20 335 -49 183 -28 335 -49 338 -45 4 3 -14 57
-40 118 -43 104 -45 113 -29 124 118 82 609 460 611 469 2 9 -24 19 -77 30
-76 17 -79 19 -70 39 22 52 118 392 111 398 -4 4 -83 -10 -177 -32 -93 -21
-171 -36 -174 -34 -2 3 -25 44 -51 92 -26 48 -51 88 -57 90 -6 2 -85 -80 -177
-182 -164 -181 -206 -215 -206 -165 0 11 16 84 34 163 71 292 126 532 126 549
0 10 -3 18 -7 18 -5 0 -67 -31 -140 -69 l-132 -68 -28 56 c-111 223 -197 381
-208 381 -7 0 -17 -6 -22 -12z m132 -261 l109 -213 124 64 c68 35 125 62 127
60 4 -4 -12 -71 -101 -432 -30 -120 -54 -228 -54 -239 0 -31 29 -57 63 -57 34
0 64 28 242 228 l109 123 46 -91 c42 -85 47 -90 70 -84 72 18 305 72 307 70 2
-1 -25 -91 -58 -200 -33 -109 -58 -201 -54 -204 3 -3 31 -11 62 -17 l56 -11
-304 -229 c-167 -125 -305 -229 -307 -230 -1 -1 15 -44 38 -95 22 -52 39 -95
37 -96 -3 -3 -498 87 -611 111 -11 2 -53 -2 -95 -10 -42 -8 -169 -30 -283 -49
-113 -20 -219 -38 -234 -42 -24 -6 -26 -5 -19 12 38 92 66 177 59 184 -9 7
-229 168 -344 250 -268 192 -289 209 -272 214 9 2 42 10 73 17 l56 12 -53 181
c-29 99 -56 189 -59 199 -4 9 -6 17 -4 17 13 0 320 -80 328 -85 6 -3 31 35 58
90 26 52 50 94 54 93 3 -2 54 -59 113 -128 146 -169 206 -230 227 -230 31 0
49 12 65 42 14 27 12 42 -37 251 -28 122 -62 265 -75 317 -12 52 -22 96 -20
97 1 2 52 -24 112 -56 l109 -59 110 219 c60 120 112 219 115 219 3 0 54 -96
115 -213z m-105 -2089 c0 -47 -4 -78 -10 -78 -19 0 -22 29 -15 107 9 97 25 78
25 -29z"/>
<path d="M752 1549 c-96 -62 -89 -224 11 -273 52 -25 120 -15 159 25 34 33 28
62 -6 30 -50 -47 -115 -50 -156 -6 -30 32 -38 107 -16 158 30 74 127 82 162
14 18 -35 33 -23 26 22 -5 35 -36 51 -100 51 -30 0 -59 -8 -80 -21z"/>
<path d="M1036 1498 c-18 -40 -43 -103 -55 -140 -13 -38 -27 -68 -32 -68 -6 0
-7 -4 -4 -10 7 -12 75 -14 75 -2 0 4 -5 13 -10 18 -6 6 -7 25 -4 42 6 32 7 32
69 32 62 0 63 -1 74 -32 8 -21 8 -35 1 -42 -21 -21 -7 -26 75 -26 80 0 103 9
71 27 -11 6 -15 35 -18 111 -2 56 0 102 3 102 7 0 129 -164 158 -213 13 -20
27 -35 32 -31 5 3 9 66 9 140 0 83 4 134 10 134 6 0 10 7 10 15 0 11 -11 15
-40 15 -44 0 -48 -5 -25 -30 12 -14 15 -37 13 -99 l-3 -82 -52 73 c-78 108
-109 138 -143 138 -36 0 -47 -16 -20 -30 18 -10 20 -20 20 -119 0 -86 -3 -111
-15 -121 -21 -17 -28 -8 -54 70 -28 83 -82 193 -99 198 -7 2 -26 -25 -46 -70z
m71 -43 l21 -55 -50 0 c-36 0 -49 4 -45 13 30 76 40 97 46 97 3 0 16 -25 28
-55z"/>
<path d="M1615 1548 c-8 -13 -33 -70 -56 -128 -22 -58 -44 -113 -49 -122 -15
-26 -13 -28 30 -28 44 0 45 2 29 29 -7 10 -9 30 -5 44 6 26 9 27 70 27 64 0
64 0 71 -31 4 -18 3 -35 -4 -42 -20 -20 -12 -27 29 -27 39 0 51 14 31 35 -5 6
-16 35 -26 65 -23 72 -83 200 -95 200 -5 0 -16 -10 -25 -22z m59 -126 c7 -21
5 -22 -43 -22 l-50 0 27 61 26 61 17 -38 c9 -22 19 -49 23 -62z"/>
<path d="M1784 1558 c-4 -6 -1 -14 6 -18 17 -11 20 -238 3 -245 -7 -2 -13 -10
-13 -16 0 -8 26 -10 90 -7 101 5 132 20 162 79 36 69 12 156 -52 193 -37 22
-185 32 -196 14z m155 -29 c40 -14 61 -54 61 -119 0 -44 -5 -56 -29 -81 -24
-24 -38 -29 -75 -29 l-46 0 0 120 0 120 29 0 c15 0 42 -5 60 -11z"/>
<path d="M2148 1503 c-17 -37 -39 -93 -49 -122 -11 -30 -26 -65 -34 -77 -17
-27 -11 -34 32 -34 36 0 38 2 22 28 -7 12 -7 25 0 45 10 27 13 28 73 25 59 -3
62 -4 70 -33 4 -17 3 -34 -2 -39 -19 -19 -10 -26 30 -26 39 0 48 7 32 25 -5 6
-23 51 -41 100 -35 100 -69 166 -89 173 -8 2 -24 -23 -44 -65z m68 -46 l22
-52 -45 -3 c-25 -2 -47 -2 -49 1 -2 2 6 29 19 60 12 30 24 54 26 51 3 -3 15
-28 27 -57z"/>
</g>
</svg>
